<?xml version="1.0" encoding="utf-8"?>
<!-- Generator: Adobe Illustrator 22.1.0, SVG Export Plug-In . SVG Version: 6.00 Build 0)  -->
<svg version="1.1" id="Layer_2" xmlns="http://www.w3.org/2000/svg" xmlns:xlink="http://www.w3.org/1999/xlink" x="0px" y="0px"
	 viewBox="0 0 463.7 569.8" style="enable-background:new 0 0 463.7 569.8;" xml:space="preserve">
<style type="text/css">
	.st0{fill:#4D4E4E;}
	.st1{fill:#030303;}
	.st2{fill:#050608;}
	.st3{fill:#37BEAE;}
	.st4{fill:#6063A9;}
	.st5{fill:#FBFBFB;}
	.st6{fill:#31BDAD;}
	.st7{fill:#FEFEFE;}
	.st8{fill:#FDFDFD;}
	.st9{fill:#FCFCFC;}
	.st10{fill:#FCFDFC;}
	.st11{fill:#F4F6F6;}
	.st12{fill:#FCFDFD;}
	.st13{fill:#FAFBFB;}
	.st14{fill:#F9FAFA;}
	.st15{fill:#FBFAFA;}
	.st16{fill:#3CB8A6;}
	.st17{fill:#6564A4;}
	.st18{fill:#E4ECEA;}
	.st19{fill:#F4F4F4;}
	.st20{fill:#F2F2F2;}
	.st21{fill:#161616;}
	.st22{fill:#D4E9E9;}
	.st23{fill:#FCFBFC;}
	.st24{fill:#FAFAFB;}
	.st25{fill:#D5E4E6;}
	.st26{fill:#33BBAB;}
	.st27{fill:#F6F7F8;}
	.st28{fill:#D9E4E4;}
	.st29{fill:#CBDEE0;}
	.st30{fill:#C2D9DC;}
	.st31{fill:#CCCEDE;}
	.st32{fill:#BFD1D3;}
	.st33{fill:#5F65AB;}
	.st34{fill:#FCFBFB;}
	.st35{fill:#EAEFF4;}
	.st36{fill:#F9F9FA;}
	.st37{fill:#3BB8AF;}
	.st38{fill:#05070A;}
	.st39{fill:#141515;}
	.st40{fill:#030305;}
	.st41{fill:#3A3D3D;}
	.st42{fill:#231F20;}
</style>
<g>
	<path class="st0" d="M435.2,384.4c8,4.7,15.9,9.5,23.9,14.2c5.5,3.3,5.9,4.8,2.7,10.3c-9.1,15.8-18.1,31.6-27.2,47.4
		c-8.7,14.7-17.4,29.4-26.1,44.1c-4.6,7.9-9.2,15.8-13.8,23.6c-2.9,5-4.5,5.5-9.6,2.5c-10.8-6.2-21.5-12.5-32.3-18.8
		c-1.7-1-3.6-1.7-5.3-2.5c-3-0.7-5.4-2.7-8.3-3.8c-2.5-1.9-5.2-3.3-8-4.6c-1.5-0.7-2.6-2.3-4.3-2.8c-1.8-0.9-3.5-2.1-5.3-3
		c-14.7-8.6-29.4-17-44-25.7c-7.1-3.8-13.9-8.1-20.8-12.2c-2.3-1.4-4.6-2.8-4-6.1c0.9-4.2,1.5-8.4,3.8-12.2
		c4.4-3.2,5.8-8.3,8.5-12.6c1-1.6-0.1-2.7-1.4-3.7c-1.9-1.3-4.3-1.8-5.8-3.7c-1-2.9-2.1-5.7-1.1-8.9c6.7-0.9,7.2-7.3,10.2-11.6
		c0.2-0.3,0.3-0.7,0.1-1c-2-3.8-6.3-4.5-9.4-6.8c-2-1.5-3.7-0.8-5.2,0.8c-3.1-0.6-3.2-3.5-4.2-5.6c-1.8-3.9-5.9-6.6-6.1-11.4
		c6.5,0.2,6.5,0.2,10-6.3c3-5.5,3-5.5-2.5-8.8c-9.7-5.9-7.8-5.8-13.5,3.4c-0.8,1.3-1.3,2.7-2.6,3.6c-2.1,0.2-3.1-1.1-3.5-3
		c0.8-3.3,3-5.9,4.5-8.8c1.2-2.3,0.9-3.7-1.3-4.9c-1.2-0.6-2.3-1.4-3.4-2.1c-7.9-4.6-8.6-4.4-12.1,4c-0.4,1-0.4,2.3-1.6,3
		c-2.8,0-5.4-0.5-6.9-3.3c2.3-2.1,4.5-4.2,6-7.1c1.7-3.2,0.9-4.9-2.1-6.3c-0.7-0.4-1.4-0.9-2.2-1.1c-2.8-0.8-5.1-4.8-7.9-2.7
		c-3.3,2.4-5.1,6.5-6.5,10.4c-0.9,2.6,1.3,3.4,3.3,4c2.1,0.6,4.3,0.1,6.4,0.6c1.1,0.3,3.6,0.2,1.7,2.7c-4.7,1.3-9.8,0.1-14.5,2
		c-3.8-2.3-7.5-4.8-11.2-7.2c-3.2-2-5.2-1.4-6.7,1.9c-0.6,1.2-1.2,2.4-2.1,3.4c-2.9,3.4-3.4,6.9-0.5,10.5c-0.5,2.3-2,3.4-4.3,3.6
		c-8.3-2.4-15-7.8-22.4-11.9c-13.9-7.8-27.6-16.1-41.5-24.1c-3.4-2-5.1-1.6-7,1.9c-5.5,9.9-5.6,9.8,4,15.5
		c16.5,9.7,33,19.4,49.7,28.9c1.2,0.7,2.4,1.2,3.2,2.3c0.8,1.4,0.4,2.8,0.3,4.2c-2.1,4.1-5.4,6.7-9.6,8.2c-5.2-0.5-9-4.1-13.3-6.5
		c-9.5-5.4-19-11-28.5-16.5c-1.3-0.9-2.8-1.6-4.2-2.3c-3.9-2.6-7.7-5.2-12.1-7c-0.5-0.1,1.1-1.4-0.6-0.9c-1.3,0.4-2.5-0.1-2.9-1.5
		c-9.1-7.9-20.2-12.5-30.3-18.8c-15.9-9.3-31.8-18.7-47.8-28c-6.5-3.8-7-4.9-3.3-11.3c22.1-38.1,44.3-76.2,66.5-114.3
		c3.2-5.5,4.8-5.9,10.4-2.7c16.3,9.5,75.3,44.2,78,45.6c3.5,1.9,7.1,3.3,7.1,3.3c1.8,0.7,3.4,1.3,4.6,1.7
		c18.5,10.8,33.5,19.6,43.1,25.2c27.4,16,54.9,32,82.3,48.1c9.8,5.7,19.5,11.5,29.4,17c3.2,1.7,6,3.8,9.3,5.2
		c12.1,7.8,24.7,14.6,37.1,21.8c1.9,1.1,3.8,2,5.4,3.5c2.8,6.6,5,13.4,6.8,20.2c1.3,5,5.4,8.9,5,14.5c-0.8,3.1-2.5,5.7-4.1,8.4
		c-0.9,1.6-2.1,3-1.3,5c-0.9,2.6-0.4,5.7-3,7.6c-1.3-0.4-2.6-1-3.4,0.6c-1.6,2.9-4.1,5.5-4.7,8.7c-1.1,6.3,5.6,5.7,8.6,8.4
		c2,1.8,4.3,1.4,5.7-1.2c1.5-2.7,3.5-5.2,4-8.4c3.8-2.1,8-3,11.9-4.8c4.2,1.1,7.6,4,11.2,6.1c2.5,1.5,4.2,1.5,5.5-1.3
		c0.5-1,1.1-2,1.7-3c4.6-8.3,4.6-8.4-3.9-12.7c-0.9-0.5-1.8-0.8-2.4-1.6c1-4.5,2.5-8.8,5.8-12.2c2.5,2.3,4.9,4.8,9,5.9
		c-3-2.6-6.6-3.3-8.8-5.9c-0.3-2.4,0.2-4.5,2.4-5.9C426.1,379.5,430.6,381.9,435.2,384.4z"/>
	<path class="st1" d="M401.4,408.3c-3.6,2.8-7.8,3.8-12.1,4.8c-3.4,2.6-6.9,2-9.8-0.6c-2.5-2.2-3.6-5.1-1-8.2c1.7-2.4,0.8-5.7,2.8-8
		c0.1-2.8,1-5.2,3.7-6.5c4,0,4-2.6,3.5-5.5c-0.8-4.7-3.7-8.5-5.3-12.9c-2.3-6.4-4.5-12.8-6.3-19.4c-2.3-8.6-8.2-14.6-15.9-19
		c-9.2-5.7-18.4-11.5-29.7-13.3c0.6,1.6,2.2,2.7,1.5,4.5c-3.7-0.7-6.6-2.8-9.3-5.3c-5-2.7-7.6-7.7-11.2-11.8
		c-0.5-0.6-0.8-1.6-0.2-2.3c0.8-1.1,1.8-0.4,2.7-0.1c0.6,0.2,1.3,0.5,1.7,1c5.2,5.7,11.9,7.2,19.2,8.2c10,1.3,19,5.9,26.5,12.2
		c9.5,8,18.1,17.3,20.5,30.4c1.2,6.4,3.9,12.4,7,18.1c3.2,5.9,4,11.9,1.3,18.2c-0.4,0.9-0.9,2-0.4,2.9c1.9,3.6,3,7.8,6.8,10.1
		c9-4.1,12.9-12.5,17.4-20.4c4.7-8.4,2.8-16.1-1.5-24c-10.3-19.2-25.6-33.3-43.7-44.8c-1.4-0.9-2.9-1.7-4.6-1.7
		c-10.3-3.9-19.4-10.2-28.9-15.7c-6.2-3.6-12.1-7.6-17.8-12.1c-3.3-2.9-6.6-5.7-10.2-8.2c-0.4-0.3-0.8-0.6-1.2-0.9
		c-0.7-0.7-1.3-1.5-2.1-2c-7.9-4.5-9.9-11.6-8.8-20.1c1-11.3,3.6-22.1,8.2-32.4c2.2-5.2,7.4-6.6,11.7-9
		c16.6-9.1,32.1-19.5,45.3-33.3c5.3-5.6,10-11.5,13.9-18.2c8.5-14.3,12.3-29.9,14-46.3c1.1-10.2,0.4-20.2-0.2-30.3
		c-0.4-7.3-3.9-13.7-6.4-20.3c-2.3-5.5-4.4-11-6.6-16.5c-1.2-3-2.5-3.4-5.1-1.8c-2.1,1.2-4.4,2.4-6.7,3.2c-1.8,0.6-3.7,1.7-5.5-0.1
		c-0.6-0.8-0.9-1.7-1.3-2.6c-3.4-10.2-7.2-20.1-13.9-28.8c-1.9-2.5-3.8-5-6.8-6.3c-3.7-1.2-7.1-0.4-10.5,1c-4.7,2-9.2,4.4-13.6,7
		c-1.8,1.1-3.7,2.3-6,1.8c-1.2-0.4-2.1-1.2-3-2.1c-2.4-2.6-4.1-5.5-4.6-9.1c-0.1-0.9-0.1-2-1.4-2.2c-12.5,5.6-23.7,13.2-34.3,21.7
		c-6.2,5-11.7,10.7-17.3,16.3c-1.2,1.2-2.4,2.3-3.3,3.7c-24.5,29.4-38.6,63.9-49.4,100c-5.3,17.7-11.9,35-17.1,52.7
		c-1.9,6.5-3.8,13.1-5.5,19.7c-0.5,1.9-0.8,4-2.5,5.3c-4.1-1.5-2.8-4.5-2.1-7.4c5.3-21.8,13.2-42.7,19.9-64.1
		c8-25.5,16-50.9,28.9-74.5c0.3-0.5,0.2-1.2,0.3-1.9c20.4-37.6,50.8-64.2,90-81.3c0.7,3.8-1,6.9-0.9,10.2c0.2,6.5,2.5,8,8,5.1
		c3.7-1.9,7.2-4.1,11-5.7c8.8-3.8,16.8-3.3,23.3,4.7c6.3,8.6,11.1,18.1,14.4,28.2c1.1,3.3,2.4,3.7,5.2,2c2.5-1.6,5.4-2.6,7.8-4.3
		c2.9-2,3.7-0.9,4.7,1.8c4.5,11.6,9.8,22.9,13.5,34.7c3.6,11.3,2.9,23.3,2.4,35.1c-0.3,7.8-1.7,15.4-2.5,23.1
		c0.2,7.2-2.6,13.5-5.3,19.9c-0.6,1.4-1.4,2.6-2.8,3.3c-13.8,27-36.2,45.2-62.3,58.8c-10,5.2-15.3,12.2-17.6,22.6
		c-1.6,7.3-2.8,14.7-3.3,22.1c-0.2,3,1,4.7,3.1,6.7c20,18.8,43.8,31.7,67.3,45.1c17.1,9.8,31.9,22.2,42.4,39.2
		c4.7,7.5,7.9,15.3,7.8,24.3c-0.7,2.1-1.5,4.1-2.2,6.2l0,0c-2,4-4,8-6,12C411.7,401.7,407.4,405.7,401.4,408.3z"/>
	<path class="st2" d="M339.5,501.3c2.8,0.9,6,1.2,7.9,4c-5.2,0.5-5.1,3.6-3.9,7.6c2.5,8.2,5,16.5,7.3,24.8
		c3.4,12.6-0.2,20.1-12.4,24.9c-15.7,6.3-32.2,7.8-49,7c-27.3-1.2-51.4-10.9-72.8-27.9c-4.8-3.8-9.2-8.1-14.2-11.6
		c-3.7-2.4-5.5-6.6-8.4-9.7c-10.7-11.2-13.2-25.8-15.5-40.3c-1.7-10.6-3-21.2-3.1-32c0-1-0.3-2-1-2.7c-10.6-2.9-21.5-4.1-32.3-6.1
		c-16-3-32.1-5.6-47.2-11.9c-0.4-0.2-1,0-1.5,0c-5.2-0.6-9.9-2.4-12.7-7.3c-7.5-5.9-9.2-13.9-9.4-22.9c-0.3-16.2,4-31.1,12.4-44.8
		c0.6,0.9,1.4,1,2.5,0.9c0.9-0.1,2.1-0.1,1.2,1.4c-6.1,11.6-10.4,24-11.3,37c-1,12.8,2.2,24.2,15.9,29.8c4.4,1.8,8.6,4.3,13.3,5.5
		c17,5.2,34.6,7.9,52.1,10.8c9,1.5,17.9,3.3,26.9,4.9c2.6-0.8,1.6-3,1.6-4.6c0.2-13.7-0.1-27.4,0.5-41.1c0.1-2,0.7-3.9,0.6-5.9
		c-0.1-3.9-0.3-7.7,0.3-11.6c1.5-7.2,0.2-14.5,0.6-21.8c-1.5-2.4-2.7-0.2-3.5,0.4c-8.8,6.8-17.9,13.3-25.9,21.2
		c-7.7,7.6-14.9,15.7-23.4,22.5c-4.6,3.6-9.3,7.1-14.5,9.8c-4.9,2.5-9.7,5.2-15.5,5c-6.8-0.2-10.9-3.2-13-9.6
		c-1.6-4.9-1.3-9.9-1.1-14.9c0.4-9.4,2.5-18.5,4.9-27.5c0.4-1.7,1-3.7,3.5-3.5c1.8,0.1,3.4,0.4,4.2,2.2c0.8,1.1,0.4,2.3,0,3.3
		c-4.5,11.2-4.5,23.1-5.2,34.8c-0.4,7.8,2.2,9.5,9.7,7.4c3.4-1,6.5-2.5,9.6-4.1c6.1-3.4,12.9-5.7,17.4-11.6c2.7-3.5,6.7-5.3,10.8-7
		c3.3-2.1,6.2-4.8,8.6-8c3.8-6.5,10.1-10.4,15.6-15.1c6.3-5.4,13.2-10.1,20.3-14.3c0.8-0.2,1.4-0.1,2,0.5c5.1-2.4,10.6-1.7,16-2
		c0.4-0.2,0.8-0.2,1,0.2c2.2,1.4,4.4,2.5,7.1,2.7c6.5,0.4,10.2,4.9,13.9,9.4c0.9,1.2,1.9,2.2,3.2,2.7c4.5,1.2,8.1,3.2,8.9,8.3
		c3.3,5.6,6.6,11.2,9.8,16.8c3.7,5.4,6,11.3,5.2,18c-0.7,3.5,1,6.7,1.1,10.1c3.1,6.8,2.2,13.4-1.1,19.8c-2,3.8-2.7,7.9-3.9,11.9
		c-2.9,8-4.2,8.8-12.3,7.1c-2.6-0.6-4.5,0.2-6.1,2.2c-1,1.3-1.9,2.7-3.1,3.9c-2.9,2.9-6.1,4.4-10.3,3c-3.3-1.1-6.7-2-9.6-4.1
		c-8-5.9-17.4-8-26.8-10.3c-2.9-0.7-3.6,0.6-3.3,3.2c1.1,9.9,1.8,19.8,3.7,29.6c2.3,22.3,14.7,38.5,31.2,52.2c2.3,1.9,4.4,4.1,7,5.7
		c30.2,22.8,63.9,29,100.5,21.8c3.4-0.7,6.7-1.8,10-3c10.8-3.8,14.1-10.3,10.7-21.4c-2.8-9-6-17.9-7.5-27.3
		C337,506.8,335.9,503.4,339.5,501.3z"/>
	<path class="st3" d="M397.3,407.7c-3.9-1.4-4.2-5.6-6.4-8.4c-2.1-2.7-2.9-4.9-0.2-8.5c2.6-3.6,1.5-8.9-0.7-12.9
		c-4.6-8.5-7.8-17.6-10.1-26.9c-1.5-5.7-5-10.3-8.9-14.7c-9.7-10.9-21.2-19.2-35.8-21.1c-8.8-1.2-15.9-4.4-22.7-9.9
		c3.7,4.5,7.4,9.1,11.2,13.6c-7.4-2.2-13.3-7.1-19.8-10.8c-42.4-24.5-84.7-49.1-127-73.7c-2.9-1.7-5.7-3.4-8.5-5.2
		c5.5-24.5,14.4-48,21.9-71.9c7.2-22.7,14.3-45.3,25.2-66.5c7.4-14.4,16.1-27.9,26.6-40.2c3.1,3.1,3.4,7.5,5.7,11
		c-2.9,4.7-7.7,7.7-11.1,12.1c-7.4,9.7-12.2,20.6-15.8,32.1c-3.9,12.4-7.2,25-7,38.1c0.2,14.4,4.3,27.6,13.6,38.8
		c6,7.1,13.9,11.2,23.3,10.1c11.9-1.3,23.7-3.2,35.2-6.6c19-5.6,33.5-17.6,46-32.2c6.2-7.3,8.7-16.7,9.1-26.5
		c0.4-8.7-0.3-17.3-2.1-25.8c8.7-7.6,17.7-14.9,26.5-22.4c4.2-3.5,8.3-7.1,12.7-10.5c1.5-1.1,2.9-2.9,5.3-1.7
		c8.1,15.4,7.4,32,6.4,48.5c-1.1,16.6-5.3,32.3-13.4,46.9c-7.3,7.4-16.4,12.3-24.8,18.2c-11.5,8.1-23,16.3-34.9,23.8
		c-3.1,1.9-4.1,4.1-2,7.4c0.7,1.1,1.5,2.2,1.5,3.6c-3.4,2.6-8.4,2.9-10.2,7.5c-1.6,0.7-1.9,2.2-2.4,3.6c-5.3,12.9-8,26.3-6.9,40.3
		c2.8,4.9,8,7.4,12,11l0,0c3.3,2.9,6.5,6,10.5,8.1c14.8,10.5,30.4,19.6,46.4,28.1c2.5,0.4,3.2,2.7,4.2,4.5
		c11.8,21.6,23.2,43.5,35.7,64.7c5.7,9.7,4.6,14.2-4.6,21C399.4,405.4,397.6,405.8,397.3,407.7z"/>
	<path class="st4" d="M222.4,540c-9.6-7.3-18.2-15.6-25.6-25.1c-7.5-9.6-10.5-21-12.2-32.8c1.5-1.1,2.9-0.2,4.2,0.5
		c17.9,9.3,36.5,8.9,55.3,3.3c12.2-3.6,22.5-10.5,31.6-19.3c0.8-0.8,1.7-1.6,2.7-2.2c10.1,5.9,20.1,11.8,30.2,17.7
		c4.7,2.7,9.4,5.5,14,8.2c-0.6,6-5.6,9.2-8.8,13.5c-1.8,2.4-4.2,4.3-6.2,6.5c-10.3,9.1-22.2,15.6-35.1,20.4
		c-14.8,5.5-30.1,8-45.7,9.5C225.3,540.5,223.9,539.8,222.4,540z"/>
	<path class="st3" d="M278.3,464.4c-2,5.3-6.8,8.1-11,11.1c-20.2,14.6-42.7,18.9-66.8,13.4c-5.5-1.3-10.6-4.4-15.9-6.7
		c-2.8-11.5-3.3-23.3-4.2-35.7c10.7,2.4,21,4.2,30,10.1c3.3,2.2,6.8,4,10.6,5.3c5.3,1.8,8.8-0.1,11.4-4.2c3-4.6,5.9-7.5,11.6-3.7
		c2.2,1.4,4.4,0,6.1-2c1.2-1.5,1.5-3.7,3.3-4.8c-0.9,3,1.6,3.7,3.3,4.7C263.9,456.1,271.1,460.2,278.3,464.4z"/>
	<path class="st5" d="M307.3,509.2c5.5-6,11.1-11.8,15.3-18.8c1.5,1,3,2,4.5,2.9c3.5,2.7,5.2,6.8,7.8,10.2c-1-2.5-3.8-4.1-3.6-7.2
		c3.5,0.5,6.3,1.9,8.2,5c-2.9,4.5-0.6,9.1,0.4,13.4c1.8,7.9,4.5,15.5,6.7,23.3c3.1,11.2,0.4,16.9-10.3,21.1c-4,1.6-8.2,2.4-12.3,3.6
		c-2.7-0.1-1.8-1.9-1.7-3.4c5.4-15,10.6-30.1,13.8-42.4c-1,5.2-3.9,13.1-6.5,21.1c-2.1,6.6-3.8,13.4-7.2,19.5
		c-2.4,0-2.9-1.9-3.5-3.6c-4.2-13.5-8.2-27.1-11.8-40.8C306.7,511.7,306.5,510.4,307.3,509.2z"/>
	<path class="st6" d="M104.1,428c-7.2-1.6-13.6-5.3-19.6-9.2c-9.2-6-10.2-16-9.8-25.8c0.5-13.1,5-25.3,10.4-37.1
		c0.5-1.1,1-1.7,2.2-1.2c4.7,0.8,8.7,3,12,6.5c-0.5,0.6-1.4,1.1-1.6,1.8c-3,12.4-6.4,24.8-5.4,37.8c0.9,12.7,8.1,17.5,20,13.2
		c3.1-1.1,6.1-2.6,9.1-3.9c3.2-0.6,3.2,2,3.1,3.7c-0.4,5.4-0.3,10.8-1.6,16.1c-1.7,2-3.8,1.3-5.9,0.9
		C112.7,430,108.6,427.9,104.1,428z"/>
	<path class="st7" d="M154.3,375.6c-19.7-11.5-39.3-23-59.1-34.3c-3.6-2-4.6-3.6-2.2-7.6c7.1-11.8,6.9-11.9,18.7-5
		c18.8,10.9,37.7,21.8,56.5,32.8c1.1,1.2,0.4,2.2-0.4,3c-4.1,3.5-8,7.2-11.7,11.1C155.7,376.1,155,375.8,154.3,375.6z"/>
	<path class="st7" d="M320.1,393.7c0.2,0.1,0.3,0.1,0.5,0.2c6,4.9,6.8-1.1,8.9-4.3c2-3.1,3.8-6.3,5.5-9.5c1.2-2.3,2.5-2.6,4.8-1.3
		c6.4,3.9,12.9,7.7,19.4,11.3c2.4,1.3,2.3,2.7,1.1,4.8c-6.1,10.3-12.1,20.7-18.1,31.1c-1.3,2.2-2.5,2.7-4.7,1.3
		c-8.6-5.1-17.2-10.1-25.9-15.1c-1.3-0.8-2.7-1.5-1.5-3.5c2.7-4.6,5.4-9.2,8.1-13.8C318.5,394.2,319.1,393.6,320.1,393.7z"/>
	<path class="st8" d="M35.2,256.1c0.6,0.3,1.5,0.7,2.3,1.2c12.7,7.4,25.2,14.8,38,22c3.2,1.8,3.4,3.4,1.5,6.3c-2,3-3.8,6.3-5.6,9.5
		c-1.2,2.2-2.6,2.5-4.8,1.2c-13-7.7-26.1-15.3-39.2-22.9c-1.6-1-2.7-2-1.6-4c2.3-4,4.7-8,7.1-12.1C33.3,256.6,33.8,255.9,35.2,256.1
		z"/>
	<path class="st8" d="M94.6,237.9c0,0.5-7.6,13.6-8.5,14c-1.3,0.7-2.2-0.3-3.2-0.8c-10.5-6.1-20.9-12.2-31.4-18.2
		c-2.7-1.5-3-3.1-1.4-5.6c1.9-3.1,3.8-6.3,5.5-9.5c1.2-2.3,2.5-3,5.1-1.5c10.5,6.3,21.1,12.4,31.7,18.6
		C93.5,235.5,94.6,235.9,94.6,237.9z"/>
	<path class="st8" d="M80.4,257.9c-2.4,3.9-5,8.5-7.9,13c-0.9,1.4-2.4,0.3-3.5-0.3c-9.9-5.8-19.7-11.6-29.7-17.3
		c-2.2-1.3-2.7-2.6-1.4-4.8c2.2-3.5,4.3-7.1,6.2-10.8c1.1-2,2.4-2,4.1-1c10.2,5.9,20.4,11.8,30.5,17.8
		C79.7,255.1,80.9,255.7,80.4,257.9z"/>
	<path class="st8" d="M55.4,297.6c-1.3,2.3-2.8,5.1-4.4,7.8c-4.3,7.5-4.3,7.5-11.9,3.1c-7.8-4.5-15.5-9.1-23.3-13.4
		c-2.9-1.6-3.5-3.1-1.7-6.2c7.3-12.9,7.1-12.9,19.7-5.5c6.3,3.7,12.6,7.3,18.9,11C53.9,295,55.4,295.4,55.4,297.6z"/>
	<path class="st8" d="M312.1,417.3c0.4,0.2,1.2,0.6,1.9,1c6.9,4,13.7,8.1,20.7,11.9c2.8,1.6,3.4,3.1,1.6,5.9
		c-2.2,3.3-4.1,6.8-6,10.3c-1,1.8-2.1,2.1-4,1c-7.4-4.4-14.8-8.7-22.3-13c-1.6-0.9-2.3-2-1.4-3.6c2.3-4.2,4.8-8.3,7.2-12.5
		C310.1,417.5,310.8,417.1,312.1,417.3z"/>
	<path class="st8" d="M372.3,374.2c-2.2,3.7-4.9,8.4-8,13c-0.8,1.3-2.4,0.1-3.6-0.6c-4.6-2.7-9.2-5.4-13.8-8
		c-2.1-1.2-2.9-2.3-1.4-4.7c2.3-3.5,4.2-7.2,6.3-10.8c1-1.7,2.1-2.3,4-1.1c5,3,10.1,5.8,15.1,8.8
		C371.7,371.2,372.7,371.7,372.3,374.2z"/>
	<path class="st8" d="M114.1,296.7c-2.4-1.4-4.9-2.8-7.3-4.2c-1.7-1-3.4-2.1-5.2-3c-2.6-1.2-2.9-2.7-1.4-5c2.1-3.3,4.1-6.8,6-10.3
		c1.2-2.2,2.6-2.8,4.8-1.3c1.5,1,3.2,1.7,4.7,2.7c2.7,1.8,8.1,2.9,7.5,5.5c-1,4.7-2.5,9.8-6,13.6C116.4,295.6,115.3,296,114.1,296.7
		z"/>
	<path class="st8" d="M123.1,274.4c-3.2-1.9-6.6-3.7-9.8-5.6c-5.7-3.4-5.7-3.4-2.3-9.1c6.2-10.7,6.2-10.7,17-4.5
		c5.8,3.3,5.8,3.3,2.3,9.2c-1.5,2.6-3.1,5.1-4.6,7.7C125.1,273.2,124.5,274.1,123.1,274.4z"/>
	<path class="st8" d="M104.7,271.1c-1.4,2.4-2.9,5.1-4.5,7.8c-4.3,7.4-4.3,7.4-11.9,3c-9-5.2-9-5.2-3.7-14.2c5-8.3,2.9-8.2,11.9-3.1
		c2,1.1,4,2.4,6,3.5C103.6,268.7,104.5,269.3,104.7,271.1z"/>
	<path class="st8" d="M132.4,307.5c-2.3-1.3-5-2.9-7.7-4.4c-8.8-5.1-7.8-3.4-3.2-11.5c5.3-9.4,5.4-9.4,14.7-3.8
		c7.8,4.7,8,2.5,2.9,11.6c-1.1,2-2.4,4-3.5,6C134.9,306.3,134.4,307.4,132.4,307.5z"/>
	<path class="st9" d="M292.2,405.6c2.1,1.2,4.5,2.6,7,4.1c8.1,4.8,8.1,4.8,3.4,13c-4.7,8.1-4.7,8.1-12.9,3.4
		c-8.1-4.7-8.1-4.7-3.4-12.9c1.1-1.9,2.1-3.8,3.3-5.6C290.1,406.7,290.5,405.7,292.2,405.6z"/>
	<path class="st9" d="M116.9,305.7c-2.4,4-4.3,10.3-8.4,12.9c-3.9,2.4-8.2-3.5-12.4-5.4c-1.4-0.6-4-1.5-3.1-3.2
		c2.4-4.9,5.4-9.5,8.2-14.2c0.5-0.8,1.5-0.6,2.3-0.1c4.2,2.4,8.3,4.9,12.5,7.4C116.7,303.4,117.3,304,116.9,305.7z"/>
	<path class="st8" d="M122.1,306.4c4.1,2.5,8.8,5.3,13.5,8.2c0.6,0.3,0.7,1.1,0.3,1.8c-2.6,4.5-5.1,9-7.7,13.4
		c-0.6,1-1.6,1.1-2.6,0.5c-4.2-2.4-8.4-4.8-12.5-7.2c-1.4-0.8-1.5-2-0.7-3.4c2.3-3.8,4.5-7.7,6.8-11.6
		C119.6,307.3,120.1,306.3,122.1,306.4z"/>
	<path class="st8" d="M96.5,322c-2.5,4.1-5.3,8.8-8.2,13.4c-0.9,1.3-2.1,0.2-3.1-0.3c-3.6-2-7.1-4.3-10.8-6.2
		c-2.5-1.3-2.1-2.7-1-4.8c7.4-14,7.9-14.2,21.1-5.3C95.4,319.4,96.6,319.8,96.5,322z"/>
	<path class="st8" d="M173.9,338.7c-2.6,4.2-5.5,9-8.5,13.7c-0.3,0.5-1.2,0.5-1.8,0.1c-0.4-0.3-0.9-0.5-1.3-0.7
		c-14.1-7.2-14.4-8.3-5.4-21.4c0.8-1.2,1.3-2.8,3.4-1.6c4.1,2.5,8.3,4.8,12.4,7.3C173.4,336.5,174.1,337,173.9,338.7z"/>
	<path class="st8" d="M287.6,404.5c-2.7,4.7-5,9.8-8.6,14.2c-0.8,1-1.9,0-2.7-0.5c-3.8-2.1-7.4-4.4-11.2-6.5
		c-1.9-1.1-2.1-2.4-0.9-4.1c0.4-0.5,0.7-1.1,1-1.7c7.6-13.2,8.5-13.4,20.7-4C286.8,402.6,287.6,403.1,287.6,404.5z"/>
	<path class="st9" d="M145.1,341.9c-4.6-2.8-9.3-5.5-13.8-8.5c-1.3-0.9-0.1-2.2,0.4-3.1c2-3.6,4.3-7.1,6.2-10.7
		c1.2-2.3,2.5-2.9,4.6-1.3c0.4,0.3,0.8,0.5,1.3,0.8c13.3,7.6,13.5,8.8,3.9,21C147,341,146.4,341.6,145.1,341.9z"/>
	<path class="st8" d="M99.9,239.2c3.9,2.4,10.5,4.2,12.7,8.3c2.2,4.2-4,8.7-6,13.3c-0.5,1.1-1.1,2.9-2.8,2.2
		c-2.3-0.9-4.4-2.3-6.6-3.6c-8.6-5-8.6-5-3.7-13.5c1-1.7,1.9-3.5,3-5.2C97.2,239.9,97.8,239,99.9,239.2z"/>
	<path class="st9" d="M259.9,306.2c2.8,1.6,5.9,3.4,9.1,5.2c7.2,4.3,6.1,2.9,2.4,9.4c-5.9,10.3-5.9,10.3-16.2,4.2
		c-7.2-4.3-6-2.9-2.5-9.4c1.3-2.5,2.8-4.9,4.2-7.3C257.5,307.3,258,306.2,259.9,306.2z"/>
	<path class="st8" d="M98,294.9c-2.4,4-5.2,8.7-8.2,13.3c-0.2,0.3-1.2,0.3-1.8,0.2c-0.6-0.1-1.2-0.6-1.8-0.9
		c-14-7.2-14.2-8.2-5.1-21.2c0.9-1.4,1.7-2.5,3.5-1.5c4.2,2.4,8.3,4.8,12.4,7.3C97.9,292.5,98.5,293.1,98,294.9z"/>
	<path class="st9" d="M366.4,422c4,2.5,8.9,5.3,13.6,8.4c0.9,0.6-0.1,1.8-0.6,2.7c-2.1,3.7-4.4,7.4-6.5,11.2c-1,1.9-2.2,2.1-4,1
		c-3.7-2.2-7.4-4.4-11.2-6.5c-1.6-0.9-2.1-2.1-1.2-3.7c2.3-4,4.6-8,7-12C364,422.4,364.4,421.6,366.4,422z"/>
	<path class="st8" d="M375.3,453.9c4.2,2.5,8.9,5.3,13.5,8.2c1.3,0.8,0.1,2.1-0.5,3.1c-2,3.6-4.3,7.1-6.2,10.8
		c-1.3,2.4-2.7,2.2-4.8,1.1c-13.9-7.2-14.2-8.1-5.2-21.3C372.7,454.9,373.2,453.8,375.3,453.9z"/>
	<path class="st9" d="M241.3,295.2c4.2,2.5,8.8,5.3,13.5,8.2c0.6,0.4,0.5,1.2,0.1,1.8c-0.4,0.7-0.8,1.4-1.2,2.2
		c-7.7,13.8-7.7,13.7-20.8,4.8c-1.3-0.9-2.7-1.6-1.6-3.5c2.4-4.2,4.8-8.3,7.3-12.4C239,295.4,239.8,295.1,241.3,295.2z"/>
	<path class="st10" d="M305.2,443.2c-2.7,4.4-5.6,9.1-8.6,13.9c-0.1,0.2-0.7,0.3-0.9,0.2c-5.1-2.4-10-5.1-14.5-8.5
		c-0.2-0.2-0.3-1-0.1-1.4c2.6-4.6,5.2-9.2,8-13.7c0.6-1,1.8-0.5,2.7,0c4,2.3,8,4.7,12,7C304.5,441.2,305.1,441.7,305.2,443.2z"/>
	<path class="st8" d="M198.5,271.4c-2.9,4.9-5.6,9.6-8.5,14.2c-0.8,1.3-2.1,0.1-3.1-0.4c-3.6-2-7.2-4.2-10.8-6.2
		c-2.2-1.2-2.7-2.7-1.1-4.8c0.6-0.8,0.9-1.8,1.5-2.6c2.2-3.2,3.2-9.3,6.5-9.3c5.2,0,9.5,4.8,14.3,7.4
		C197.9,270.1,198.1,270.9,198.5,271.4z"/>
	<path class="st8" d="M67.8,325c-4.5-2.7-9.2-5.4-13.8-8.3c-0.4-0.2-0.6-1.4-0.4-1.8c2.6-4.6,5.2-9.2,8.1-13.7
		c0.9-1.4,2.4-0.1,3.5,0.5c3.3,1.9,6.6,3.9,9.9,5.7c2.4,1.3,3.1,2.7,1.5,5.1c-2.1,3.3-4,6.8-6,10.3C70,323.8,69.5,324.9,67.8,325z"
		/>
	<path class="st9" d="M312,338.2c-2.7,4.4-5.4,9.1-8.4,13.7c-0.6,0.9-1.8,0.3-2.7-0.2c-4.3-2.7-11.1-4-12.5-8.2
		c-1.4-4.3,4.3-8.7,6.4-13.3c1-2.2,2.4-2.3,4.4-1.1c3.5,2.2,7.1,4.2,10.7,6.2C311,335.8,312,336.4,312,338.2z"/>
	<path class="st9" d="M175.8,283.4c3.9,2.3,8.5,4.9,13,7.7c1.5,0.9,0.4,2.3-0.2,3.5c-6.8,13.8-8.9,14.3-21.5,5.4
		c-1.3-0.9-2.5-1.8-1.5-3.6c2.4-4.2,4.8-8.3,7.3-12.4C173.4,283.4,174.1,283,175.8,283.4z"/>
	<path class="st8" d="M93.7,230.9c-3-1.7-6.1-3.9-9.6-5.5c-4.7-2.1-5.2-4.2-2.4-8.8c6.6-10.5,6.3-10.7,16.9-4.5
		c5.6,3.3,5.6,3.3,2.4,8.8c-1.5,2.6-3,5.2-4.5,7.7C96,229.7,95.6,230.9,93.7,230.9z"/>
	<path class="st8" d="M320.7,363.3c-4.2-2.5-8.9-5.2-13.5-8.2c-1.4-0.9-0.1-2.2,0.4-3.1c2-3.6,4.3-7.1,6.2-10.8
		c1.3-2.5,2.7-2.3,4.8-1.1c3.4,2.1,6.9,4,10.3,6c1.3,0.7,2.9,1.4,1.7,3.4c-2.4,4.2-4.8,8.3-7.2,12.5
		C322.9,363,322.3,363.3,320.7,363.3z"/>
	<path class="st8" d="M303.3,406.9c-2.2-1.2-4.6-2.6-7.1-4c-8.2-4.7-8.2-4.7-3.5-12.8c4.9-8.3,4.9-8.3,13.3-3.3
		c7.8,4.6,7.8,4.6,3.1,12.6c-1.1,1.9-2.2,3.7-3.3,5.5C305.2,405.8,304.8,406.7,303.3,406.9z"/>
	<path class="st8" d="M363,475.1c4.2,2.5,8.7,5.2,13.3,8c0.9,0.5,0.7,1.4,0.3,2.2c-0.2,0.4-0.4,0.9-0.6,1.4c-2.7,4.1-4,11-8,12
		c-4.6,1.1-9.1-4.4-13.7-6.9c-1-0.5-2.2-1.2-1.3-2.7c2.5-4.3,5-8.6,7.5-12.9C360.9,475.3,361.6,475,363,475.1z"/>
	<path class="st8" d="M225.5,307.8c-3.7-2.2-8.4-5-13-7.9c-0.3-0.2-0.4-1.2-0.2-1.8c0.2-0.8,0.7-1.5,1.1-2.2
		c7.6-13.8,7.8-13.8,20.9-4.7c1.5,1,2.7,1.7,1.3,3.8c-2.4,3.8-4.5,7.7-6.8,11.6C228.3,307.4,227.9,308.4,225.5,307.8z"/>
	<path class="st9" d="M122.4,228.1c-2.5,4.2-5.3,8.9-8.2,13.6c-0.5,0.8-1.5,0.4-2.2,0c-0.9-0.5-1.8-0.9-2.6-1.5
		c-3.6-2.5-10-3.5-10.5-7.3c-0.6-4.7,4.5-8.8,6.7-13.4c0.6-1.3,1.8-2,3.3-1.2c4.2,2.4,8.3,4.8,12.5,7.2
		C122.1,225.9,122.5,226.6,122.4,228.1z"/>
	<path class="st8" d="M208.4,304.3c-2.5,4.3-5.2,9-8.1,13.6c-0.7,1.2-2.1,0.2-3.1-0.4c-3.6-2.1-7.1-4.2-10.7-6.2
		c-2.5-1.3-2.1-2.7-1.1-4.8c7.1-13.9,8.2-14.2,21.1-5.3C207.4,301.8,208.5,302.3,208.4,304.3z"/>
	<path class="st9" d="M199,327c-2.4,3.9-4.2,10.3-8.4,12.7c-3.9,2.2-8.4-3.7-12.8-5.8c-1.2-0.6-3.4-1.3-2.5-3
		c2.5-4.9,5.3-9.5,8.1-14.2c0.5-0.7,1.5-0.3,2.3,0.2c4.1,2.4,8.3,4.8,12.4,7.3C199,324.5,199.5,325.1,199,327z"/>
	<path class="st9" d="M260.3,360.1c5,3,9.7,5.7,14.3,8.7c1.3,0.8,0.1,2.1-0.4,3.1c-6.9,14.1-8.5,14.5-21.4,5.6
		c-1.3-0.9-2.7-1.5-1.5-3.4c2.5-4.1,4.8-8.4,7.3-12.5C258.9,361,259.7,360.7,260.3,360.1z"/>
	<path class="st8" d="M241.3,342.4c0-1.4,7.6-14.6,8.4-14.9c0.9-0.4,1.6,0,2.3,0.4c4,2.3,8,4.6,12,6.9c1.4,0.8,1.6,1.9,0.8,3.3
		c-2.4,4-4.7,8-7,12c-0.7,1.2-1.7,1.7-2.9,1c-4.3-2.4-8.6-5-12.8-7.5C241.6,343.3,241.4,342.6,241.3,342.4z"/>
	<path class="st8" d="M170.5,282.1c-2.6,4.3-5.3,9.1-8.2,13.6c-0.8,1.2-2.1,0.2-3.1-0.4c-3.6-2.1-7.1-4.3-10.7-6.2
		c-2.5-1.3-2.3-2.8-1.1-4.8c2-3.2,3.9-6.5,5.7-9.9c1.3-2.3,2.6-3.1,5.1-1.5c3.2,2.1,6.6,3.8,9.8,5.8
		C169.1,279.5,170.5,280,170.5,282.1z"/>
	<path class="st8" d="M84.4,205.7c-1.3,2.3-2.8,5-4.4,7.7c-4.2,7.2-4.2,7.1-11.5,2.9c-9-5.2-9-5.2-3.7-14.2c4.2-7.2,4.2-7.2,11.4-3
		c2,1.2,4,2.3,6,3.5C83.2,203.2,84.4,203.7,84.4,205.7z"/>
	<path class="st9" d="M278.6,316.9c4.7,2.9,9.4,5.7,14,8.6c0.6,0.4,0.5,1.1,0.1,1.8c-0.2,0.4-0.3,1-0.6,1.4c-2.8,4.1-3.9,10.9-8,12
		c-4.7,1.2-9.1-4.4-13.8-6.7c-1-0.5-2.2-1.1-1.3-2.7c2.6-4.4,5.1-8.9,7.7-13.3C277.1,317.4,277.9,317.3,278.6,316.9z"/>
	<path class="st9" d="M350,360c-1.6,2.8-3.4,5.8-5.1,8.8c-3.7,6.4-3.6,6.4-9.8,2.8c-10.1-6-10.2-6-4.1-16.2c3.8-6.4,2.3-6.4,9.4-2.4
		c2.4,1.4,4.8,2.8,7.3,4.3C348.7,357.9,349.8,358.4,350,360z"/>
	<path class="st9" d="M386.2,433.4c4.9,3,9.7,5.9,14.5,8.9c0.8,0.5,0.1,1.2-0.2,1.7c-2.4,4.2-4.8,8.3-7.2,12.5
		c-1,1.8-2.3,1.5-3.7,0.6c-3.7-2.2-7.5-4.3-11.2-6.5c-1.1-0.7-2.4-1.3-1.4-3.1c2.5-4.3,5-8.6,7.6-12.9
		C384.8,434.2,385.5,433.9,386.2,433.4z"/>
	<path class="st8" d="M420.4,425.7c3.4,2.1,8.1,4.9,12.7,7.9c1,0.6,0.2,1.8-0.3,2.7c-2.2,3.7-4.4,7.4-6.5,11.2c-1,1.9-2.2,2.2-4,1.1
		c-3.7-2.2-7.5-4.4-11.2-6.6c-1.3-0.7-2.2-1.6-1.3-3.2c2.4-4.2,4.8-8.3,7.3-12.5C417.4,425.6,418,425,420.4,425.7z"/>
	<path class="st9" d="M325.1,455.1c-2.6,4.2-5.3,8.9-8.2,13.6c-0.5,0.8-1.4,0.5-2.2,0c-1-0.6-2.1-1-3-1.7c-3.5-2.4-9.7-3.4-10-7.1
		c-0.4-4.8,4.3-8.9,6.8-13.4c0.7-1.3,1.8-2,3.3-1.1c4.2,2.4,8.3,4.8,12.4,7.2C324.9,453,325.4,453.6,325.1,455.1z"/>
	<path class="st8" d="M311.7,384.3c-4-2.4-8.7-5.1-13.2-8.3c-1.4-1,7-15.8,8.8-15.6c1.1,0.1,2.1,0.9,3.1,1.4
		c2.9,1.6,5.7,3.5,8.7,4.9c3.2,1.5,3.6,3.2,1.6,6.1c-2.1,3-3.7,6.3-5.6,9.5C314.6,383.3,314.1,384.6,311.7,384.3z"/>
	<path class="st9" d="M246.3,326.2c-1.6,2.7-3.4,5.8-5.3,9c-3.9,6.4-2.6,6.4-9.5,2.3c-10-5.8-10-5.9-4.1-16c4-6.9,2.9-6.4,9.4-2.5
		c2.6,1.5,5.2,3,7.8,4.5C245.4,324,246.5,324.3,246.3,326.2z"/>
	<path class="st8" d="M397.6,459.4c2.4-3.9,5-8.6,8.2-13.1c1-1.4,16.1,7.2,15.5,8.8c-1.5,3.6-4,6.9-5.6,10.5c-2,4.5-4.4,5-8.2,2.1
		c-2.5-1.9-5.4-3.2-8.1-4.8C398.4,462.3,397.1,461.9,397.6,459.4z"/>
	<path class="st8" d="M217,329.1c-4-2.4-8.7-5.1-13.3-8c-1.1-0.7-0.2-2.1,0.3-3.1c6.5-14.3,7.1-14.4,20.5-6.3
		c2.7,1.6,3.5,2.9,1.6,5.7c-2.1,3.1-3.9,6.6-5.8,9.8C219.8,328.2,219.4,329.5,217,329.1z"/>
	<path class="st9" d="M412.7,423.4c-2.5,4.1-5.2,8.8-8.1,13.4c-0.6,0.9-1.8,0.4-2.7-0.2c-1.2-0.7-2.4-1.2-3.4-2
		c-3.2-2.3-9.4-3.4-9.3-6.4c0.1-5.2,4.8-9.5,7.4-14.3c0.6-1.1,1.7-1,2.6-0.4c4.2,2.4,8.3,4.8,12.5,7.2
		C412.3,421.2,413,421.7,412.7,423.4z"/>
	<path class="st8" d="M151.1,271.9c-2.2,3.6-5,8.3-7.9,12.9c-0.2,0.3-1.2,0.3-1.8,0.1c-0.6-0.1-1.2-0.6-1.8-0.9
		c-13.9-7.4-14-7.8-5.2-20.8c0.9-1.3,1.6-2.9,3.5-1.8c4.2,2.3,8.3,4.8,12.5,7.3C151.1,269.1,151.7,269.7,151.1,271.9z"/>
	<path class="st9" d="M217.3,283c-2.6,4.4-5.3,9.1-8.2,13.7c-0.8,1.2-2.1,0.2-3.1-0.4c-3.6-2.1-7.1-4.2-10.8-6.2
		c-2-1.1-2.6-2.4-1.2-4.4c2.8-4.2,4-11.2,8.4-12.2c4.3-0.9,8.8,4.3,13.3,6.7C216.5,280.8,217.4,281.4,217.3,283z"/>
	<path class="st8" d="M180.3,315.2c-1.4,2.3-3,5.1-4.6,7.8c-4.3,7.2-4.3,7.2-11.4,3.1c-9-5.2-9-5.2-3.7-14.3
		c4.2-7.2,4.2-7.2,11.5-2.9c2.1,1.3,4.3,2.5,6.4,3.7C179.3,313.1,180.4,313.5,180.3,315.2z"/>
	<path class="st8" d="M445.4,414.7c-2.6,4.3-5.3,8.8-8.2,13.3c-0.5,0.7-1.5,0.7-2.3,0.3c-0.6-0.3-1.2-0.6-1.8-0.9
		c-13.3-6.9-13.7-8.5-4.9-20.9c0.9-1.3,1.6-2.6,3.5-1.5c4.1,2.5,8.3,4.8,12.5,7.2C445.2,412.7,445.4,413.4,445.4,414.7z"/>
	<path class="st8" d="M150.5,264.1c-4.4-2.6-9.1-5.3-13.7-8.3c-1.1-0.7-0.2-2.1,0.3-3.1c6.5-14.3,7.1-14.4,20.5-6.3
		c2.7,1.6,3.4,3,1.6,5.8c-2.1,3.1-3.9,6.5-5.8,9.8C152.7,263,152.4,264.2,150.5,264.1z"/>
	<path class="st8" d="M147.3,294.4c4.2,2.5,8.9,5.3,13.6,8.2c0.8,0.5,0.6,1.5,0.1,2.2c-0.4,0.7-0.8,1.4-1.3,2.2
		c-7.6,13.5-7.6,13.5-20.3,4.6c-1.4-1-2.9-1.9-1.7-3.9c2.3-4,4.7-8.1,7.1-12.1C145.2,294.8,145.7,294.2,147.3,294.4z"/>
	<path class="st8" d="M284.3,348.1c-2.6,4.4-5.2,9.2-8.2,13.7c-0.8,1.3-2.4,0.2-3.6-0.4c-3.4-2-6.8-4.1-10.3-6
		c-2.4-1.3-2.3-2.7-1.1-4.8c2-3.2,3.8-6.6,5.7-9.9c1.2-2.3,2.5-3.2,5.1-1.5c3.3,2.2,6.8,4,10.2,6.1
		C283.1,345.9,284.4,346.2,284.3,348.1z"/>
	<path class="st9" d="M356.3,472.7c-1.7,2.9-3.4,6.1-5.2,9.2c-3.4,5.9-3.5,5.9-9.4,2.5c-10.3-5.9-10.3-5.9-4.3-16.3
		c3.4-6,3.4-6,9.5-2.4c2.4,1.4,4.8,2.9,7.3,4.3C355.1,470.5,356.2,471,356.3,472.7z"/>
	<path class="st11" d="M332.9,324.2c-1.4-1.8-2.7-3.7-4.5-6.1c13,1.1,23,7.3,32.8,14c4.6,3.2,8.2,7.6,11.8,11.8
		c1.2,1.4,2.7,3,1.3,5.2c-12.5-7.3-25.1-14.5-37.6-21.8C335.3,326.5,334.2,325.2,332.9,324.2z"/>
	<path class="st8" d="M179.7,260.5c-3,4.9-5.8,9.7-8.9,14.4c-0.5,0.8-1.5,0.1-2.2-0.3c-3.9-2.2-7.7-4.5-11.6-6.7
		c-1.8-1-2.2-2.2-1.1-4c2.2-3.7,4.4-7.4,6.5-11.1c0.7-1.3,1.6-2.3,3.1-1.4c4.3,2.4,8.6,4.9,12.9,7.5
		C178.9,259.1,179.2,259.8,179.7,260.5z"/>
	<path class="st8" d="M303.3,358.9c-1.9,3.3-4.1,6.6-5.8,10.2c-2,4.2-3.9,5.1-8.2,2.3c-10.8-6.9-10.8-6.5-4.6-17.8
		c2.3-4.2,4.3-5,8.2-2.2c2.5,1.9,5.4,3.2,8.1,4.8C301.9,356.9,303.1,357.2,303.3,358.9z"/>
	<path class="st9" d="M294,381.7c-2.6,4.3-5.5,9.1-8.6,13.8c-0.7,1-2.1-0.1-3.1-0.7c-2.6-1.5-5-3.3-7.7-4.4
		c-4.5-1.9-5.2-4.1-2.5-8.5c6.8-10.9,6.5-11.1,17.7-4.5C294,379.9,294,379.9,294,381.7z"/>
	<path class="st8" d="M286.2,432c-1.4,2.4-2.9,5.1-4.5,7.8c-4.3,7.3-4.3,7.3-11.5,3c-8.9-5.2-8.9-5.2-3.7-14c4.3-7.4,4.3-7.4,11.9-3
		c2,1.2,4,2.3,6,3.5C285.2,429.9,286.2,430.2,286.2,432z"/>
	<path class="st9" d="M383.8,487.2c4,2.4,8.6,5.2,13.2,8.1c0.3,0.2,0.3,1.3,0.1,1.8c-0.2,0.8-0.8,1.4-1.2,2.2
		c-7.4,13.2-7.4,13.1-20.3,5c-2.3-1.4-3-2.7-1.4-5.1c2.2-3.3,4.1-6.8,6.1-10.2C381,488,381.5,486.9,383.8,487.2z"/>
	<path class="st8" d="M141.6,238.5c-2.9,4.8-5.7,9.5-8.6,14.2c-0.5,0.9-1.5,0.4-2.2,0c-0.9-0.5-1.8-0.9-2.6-1.4
		c-12.7-7.4-12.9-8.6-3.7-20.6c0.9-1.2,1.7-2.2,3.2-1.3c4.3,2.5,8.6,5,12.9,7.5C141,237.1,141.2,237.8,141.6,238.5z"/>
	<path class="st12" d="M242.5,370.4c-2.5-3.3-5.6-5.9-8.9-8.3c1-4.3,4.1-7.5,5.9-11.4c0.7-1.6,1.9-1.5,3.3-0.7
		c3.8,2.3,7.7,4.6,11.6,6.8c1.8,1,2.2,2.1,1,4c-1.7,2.6-3.2,5.5-4.8,8.2C247.3,374.6,247.3,374.6,242.5,370.4z"/>
	<path class="st8" d="M209.4,347.3c-0.3-0.1-0.7-0.1-1-0.2c-2.3-1.4-4.8-0.7-7.3-0.8c-6.1-0.2-7.8-3.3-4.8-8.5
		c6.5-11.2,6.3-11,17.7-4.8c4.3,2.4,5.3,4.5,2,8.2C214,343.5,214.1,348,209.4,347.3z"/>
	<path class="st5" d="M401.4,408.3c4.9-3.6,8.9-7.8,11.9-13c4.3,0.1,7,3.4,10.5,5.1c1.7,0.8,0.9,2.3,0.2,3.4
		c-2.1,3.7-4.4,7.4-6.5,11.2c-0.9,1.6-2.1,2.1-3.7,1.1C409.8,413.5,405.1,411.7,401.4,408.3z"/>
	<path class="st13" d="M230.3,359.4c-4.8-2.8-8.5-7.3-13.9-9.4c-0.3-2.2,3.6-10.8,5.2-11.5c1.4-0.6,15.8,8,15.5,9.4
		c-0.2,0.9-0.8,1.8-1.3,2.6C234,353.6,232.2,356.5,230.3,359.4z"/>
	<path class="st14" d="M378.5,404.3c-0.6,8.1,1.6,9.8,10.8,8.8c2.3,3.1-1.2,4.6-2.2,6.5c-3.9,7.3-2.8,7-10,2.8
		c-9.8-5.7-9.8-5.7-4-15.7c0.7-1.3,1.5-2.6,2.3-3.9c0.5-0.8,1.1-1.8,2.3-1.5C379.4,401.8,378.1,403.4,378.5,404.3z"/>
	<path class="st9" d="M93.3,190.9c-1.5,2.5-2.3,5.9-4.9,7.6c-1.9,1.2-3.8-1.3-5.6-2.2c-1.6-0.8-3.1-1.8-4.7-2.7
		c-6.7-3.9-6.6-3.9-2.6-10.6c1.4-2.4,2.7-2.9,5-1.4c3.5,2.2,7.1,4.2,10.7,6.3C92.1,188.5,93.6,188.9,93.3,190.9z"/>
	<path class="st5" d="M257.5,405.3c-1.7-6-3.5-12-5.2-18c-0.4-3.7,1-4.6,4.1-2.6c2.2,1.4,4.5,2.7,6.8,4.1c6.6,3.9,6.9,2.4,2.5,10.2
		c-1.3,2.3-2.8,4.5-4,6.8C259.9,409.3,258.6,408.1,257.5,405.3z"/>
	<path class="st5" d="M337.2,331.2c4.7,2.9,10.2,5.3,14.2,9.3c1.9,1.8-2.1,5.4-3.6,8c-1.2,2-2.9,0.4-4.3-0.4c-2.9-1.6-5.8-3.2-8.6-5
		c-1.4-0.9-4.1-1.3-3.6-3.5c0.7-3,2.6-5.7,4.6-8.1C336.1,331.3,336.6,331.4,337.2,331.2z"/>
	<path class="st5" d="M155.4,227.6c-1.2,2.1-2.3,5.1-4.4,7c-2,1.8-3.7-1.1-5.5-1.9c-2-0.8-3.7-2.1-5.6-3.2c-5.5-3.1-5.8-7.5-1-11.6
		c0.9-0.7,1.8-1,2.7-0.4c4.3,2.5,8.6,5,12.9,7.5C155.2,225.4,155.6,226.1,155.4,227.6z"/>
	<path class="st5" d="M268.2,304.4c-4.9-2.9-10.3-5.2-14.2-9c-2-2,2.1-5.3,3.5-8c1.2-2.3,2.9-0.7,4.2,0.1c3.3,1.9,6.5,4.1,9.9,5.7
		c3.2,1.5,3.2,3.3,1.3,5.7C271.3,300.6,271.2,303.5,268.2,304.4z"/>
	<path class="st5" d="M314.4,318.1c4.9,3,10.4,5.2,14.3,9c2,1.9-2,5.3-3.3,8c-1.2,2.3-2.8,0.8-4.2,0.1c-2.6-1.4-5.1-3-7.7-4.5
		c-5.2-3.1-5.6-7.4-0.8-11.6C313.2,318.6,313.8,318.4,314.4,318.1z"/>
	<path class="st5" d="M233.2,272.6c-1.4,2.2-2.6,5.3-4.8,7.3c-1.6,1.5-3.5-1.1-5.2-1.9c-2.9-1.5-5.7-3.3-8.6-4.9
		c-2.3-1.2-2.4-2.5-1.2-4.8c3.7-7,3.6-7,10.4-3c2.6,1.5,5.1,3,7.7,4.5C232.3,270.3,233.4,270.7,233.2,272.6z"/>
	<path class="st5" d="M167.9,245.8c-4.7-2.8-10-4.9-13.9-8.6c-2.6-2.4,1.8-5.3,2.8-8.1c0.9-2.4,2.6-1.2,4-0.4
		c2.7,1.6,5.5,3.1,8.2,4.7c5.3,3.1,5.5,7.6,0.7,11.6C169.2,245.5,168.7,245.9,167.9,245.8z"/>
	<path class="st5" d="M292.4,307.6c-1.2,2-2.4,5-4.6,6.8c-1.7,1.4-3.8-1.1-5.6-2.1c-2.1-1-3.9-2.6-6.1-3.4c-4.5-1.9-4.7-4.2-2.2-8.2
		c2.2-3.4,3.8-4.4,7.3-2c3,2.1,6.3,3.8,9.4,5.6C291.6,304.9,292.9,305.4,292.4,307.6z"/>
	<path class="st5" d="M251.6,283.4c-1.3,2.2-2.4,5.2-4.5,7.2c-1.9,1.8-3.8-1-5.6-1.9c-2.1-1-4.1-2.3-6-3.5c-6.2-3.7-5.6-2.3-2.3-8.7
		c1.6-3.2,3.3-4.1,6.5-1.9c3.1,2.2,6.6,3.9,9.9,5.8C250.6,281,251.8,281.4,251.6,283.4z"/>
	<path class="st9" d="M355.7,342.1c4.7,2.8,10.2,5.1,14.1,8.9c2,2-2,5.3-3.3,8c-1.2,2.4-2.8,0.8-4.1,0.1c-2.7-1.5-5.5-3-8.1-4.8
		c-1.7-1.1-5-1.5-4.4-3.9c0.6-2.8,2.8-5.2,4.4-7.7C354.3,342.3,355,342.3,355.7,342.1z"/>
	<path class="st5" d="M182,241c4.6,2.7,10,4.9,13.8,8.6c2.2,2.1-2,5.3-3.3,8.1c-1.2,2.6-2.8,0.8-4.1,0.1c-2.9-1.6-5.8-3.2-8.6-5
		c-1.5-1-4.6-1.4-4-3.7c0.8-2.8,2.9-5.2,4.5-7.7C180.6,241.1,181.3,241.1,182,241z"/>
	<path class="st5" d="M311.1,317.7c-1.3,2.2-2.6,5-4.6,7.1c-1.9,1.9-3.6-0.6-5.2-1.4c-2.4-1.1-4.5-2.9-6.9-3.9
		c-4.5-1.8-4.4-4.1-2.1-7.9c2.1-3.5,3.8-4.9,7.5-2.2c2.8,2.1,6,3.5,9,5.4C309.7,315.4,311,315.7,311.1,317.7z"/>
	<path class="st5" d="M199.7,251.4c1.8,1,3.5,1.9,5.2,2.9c1.9,1.1,3.6,2.4,5.6,3.2c4.4,1.9,4.7,4.2,2.2,8.3c-2.2,3.4-3.8,4.5-7.2,2
		c-2-1.5-4.3-2.6-6.4-3.8c-5.3-3.1-5.6-7.7-0.7-11.7C198.8,252,199.2,251.8,199.7,251.4z"/>
	<path class="st5" d="M112.7,213.7c-4.7-2.8-10.1-5-13.9-8.7c-2.5-2.4,1.8-5.3,2.9-8.1c1-2.3,2.7-1.2,4.1-0.3
		c3.6,2.1,7.1,4.2,10.7,6.2c1.7,0.9,2.7,2.1,1.4,3.9C116.5,209.2,115.9,212.4,112.7,213.7z"/>
	<path class="st9" d="M122.3,206.2c4.8,2.8,10.2,5.1,14.1,8.9c2.3,2.2-2.1,5.2-3.2,7.9c-0.8,2-2.3,1.4-3.7,0.5
		c-2.8-1.7-5.8-3.2-8.5-5.1c-1.7-1.1-5-1.4-4.4-3.9c0.6-2.8,2.7-5.2,4.2-7.8C120.9,206.4,121.6,206.4,122.3,206.2z"/>
	<path class="st15" d="M192.3,349.2c-0.6,0-1.3,0.1-1.9,0.1c-4.6,0.1-8,2.4-11.3,5.3c-1.9,1.7-3.5,4-6.6,3.4
		c-4.2-1.9-4.1-4.3-1.8-8.1c6.9-11.3,6.7-11.4,18-4.6C190.1,346.2,192.9,346.2,192.3,349.2z"/>
	<path class="st16" d="M374.3,349.1c-1.8-6.4-7.8-9.6-11.3-14.7c-0.6-0.8-1.2-1.5-1.8-2.3c8.8,4.1,14.5,10.9,17,20.2
		c2.3,8.9,5.2,17.5,9.6,25.5c1.9,3.5,3,7.1,1.8,11c-0.6,2-1.5,4.5-4.2,1.7c-0.2-2.2,1.4-4.1,1.1-6.4c-2.5-7.2-4.7-14.6-7.7-21.6
		C376.8,358.1,377.2,353.1,374.3,349.1z"/>
	<path class="st17" d="M172.5,358.1c3.4-2.6,6.9-5,10.2-7.7c2.4-2,4.8-2.7,7.7-1c-4.5,4.5-10.3,7.2-15.2,11.1
		c-7.2,5.7-14,11.7-20.8,17.8c-1-0.9,0.2-1.7,0-2.6c4.6-4.8,10-8.7,14-14.2C170.4,361.1,171.6,359.8,172.5,358.1z"/>
	<path class="st18" d="M257.4,435.2c1.5-6.5,2-13.1,1.1-19.8c3.4-0.5,5.3,2.3,7.8,3.5c0.5,0.2,1,1.3,0.9,1.6
		C264,425.4,262.8,431.7,257.4,435.2z"/>
	<path class="st19" d="M439.2,393.5c3.8,2.3,7.4,4.4,11,6.7c0.8,0.5,0.6,1.4,0.1,2.2c-0.5,0.7-1.2,0.5-1.7,0.2
		c-3.6-2-7.1-4.1-10.6-6.2c-0.4-0.2-0.5-1.2-0.3-1.7C437.7,394.3,438.5,394,439.2,393.5z"/>
	<path class="st20" d="M419.4,383.2c4,0.1,6.7,3,10,4.8c0.4,0.2,0.8,1.1,0.7,1.6c-0.1,0.5-0.8,1.1-1.3,1.3
		C426.7,391.3,419.7,385.5,419.4,383.2L419.4,383.2z"/>
	<path class="st21" d="M331.3,496.3c1.9,2.7,3.7,5.4,5.6,8.1c0.5,0.7,1.2,1.3,0.2,2c-0.9,0.6-1.5,0-2-0.7c-2.7-4.1-5.4-8.2-8.1-12.3
		C329.5,492.8,329.9,495.3,331.3,496.3z"/>
	<path class="st22" d="M386.4,384.1c1.8,2.5,0.5,4.5-1.1,6.4c-2.2,1.3-2.1,4.2-3.9,5.8c-2.4-0.5-1.2-1.9-0.7-2.9
		C382.5,390.3,384.5,387.2,386.4,384.1z"/>
	<path class="st4" d="M304.4,20.3c0.6,0.6,1.2,1.2,1.8,1.7c2.7,6.5,5.7,12.7,10,18.4c2.9,3.8,6.3,6.9,11.2,7.8
		c4.7,2.9,9.8,3.7,15.2,3.7c3.8,0,7.6-0.4,11.4,0.3c0.5,0.1,0.9,0.4,1.3,0.7c-0.3,3.8-3.7,5.3-6,7.3c-9.1,7.9-18.1,16.1-27.5,23.7
		c-0.9,0.7-1.7,1.5-3,1.8c-12.6-2.8-25-5.8-33.4-17c-2.1-2.8-5.1-4.7-7.5-7.4c-2-2.3-4.8-2.8-7.7-2.8c-5.1,0-10.3-0.4-15.4-0.5
		c-4.1-2.8-7.1-6.7-9.5-11c15-16.6,32.5-29.8,53-38.9c1.8,2.3,0.7,5.4,2.3,7.8C301.7,17.6,302.5,19.5,304.4,20.3z"/>
	<path class="st9" d="M319.4,85.1c11.6-10.3,23.3-20.5,34.9-30.8c0.5-0.4,1-0.9,1.4-1.4c0.4-1.7,1.4-2.8,3.3-2.9
		c4,2.1,6.8-1.2,9.8-2.5c6.6-2.9,6.5-3.1,9.1,3.4c1.9,4.8,3.6,9.5,5.5,14.3c0.6,1.2-0.3,1.5-1,2c-12.7,10.5-25.4,20.9-38.1,31.4
		c-1.4,1.2-2.7,2.4-4.6,2.9c-2.4-1-2.7-3.5-4.2-5.3c-3.1-3.6-7-5.8-11.3-7.6C322.4,87.9,320,87.6,319.4,85.1z"/>
	<path class="st23" d="M397.3,407.7c-0.9-0.7-0.6-1.4,0.2-2c0.9-0.7,1.9-1.3,2.8-2.1c9.1-7.8,9.4-10.1,3.4-20.4
		c-11.7-20-22.6-40.3-33.4-60.8c-1.5-2.8-3.2-5.4-4.9-8.1c0.6-1.3,1.4-0.9,2.4-0.3c21.1,12.6,38.5,28.7,49,51.5c3,6.6,3,12.6-0.1,19
		C411.9,393.8,407.3,403,397.3,407.7z"/>
	<path class="st3" d="M359,50c-1.1,1-2.2,1.9-3.3,2.9c0,0-0.4-0.2-0.4-0.2c-1.3-1-2.6-2.1-4.4-2.1c-7.2,0.2-14.2-0.8-21.2-2.4
		c-1.1-0.3-2.3-0.1-3.5,0.1c-2.5,1.6-4.2-0.6-5.6-1.8c-7.4-6.2-11.6-14.6-15-23.4c-0.1-0.3,0.4-0.8,0.6-1.2c2,0.6,3.4-0.7,5-1.5
		c5.9-3.1,11.5-7,18.1-8.7c2.7-0.7,5.4-1.4,7.9,0.6c7.7,5.5,11.4,13.8,15.4,21.9c2.2,4.6,2.8,9.9,6.1,14
		C359.5,48.8,359.2,49.4,359,50z"/>
	<path class="st24" d="M316.1,215.7c-2.9-1.4-3.1-4.6-4.3-7c-1.2-2.5,1.4-3,2.8-3.9c12.7-8.8,25.5-17.4,38.2-26.1
		c7.5-5.2,15-10.4,22.5-15.5c0.5,0.4,0.6,0.9,0.2,1.5c-8.3,14.6-20.4,25.5-33.7,35.2C333.7,205.7,325.1,210.9,316.1,215.7z"/>
	<path class="st25" d="M375.5,164.5c-0.1-0.5-0.1-1-0.2-1.5c11.8-20.7,14.7-43.3,13.9-66.7c-0.4-10.2-1.6-20.1-6.9-29.1
		c0.3-0.7,0.7-1.3,1-2c7.1,11.6,7.7,24.6,7.8,37.5c0,19.4-2.8,38.4-12,55.9C378.1,160.7,376.7,162.6,375.5,164.5z"/>
	<path class="st26" d="M386.4,411.3c-4.4-0.1-6.4-2.4-6.1-6.8c0.1-2,1-3.8,1.9-5.6c2.1-4,3.8-4,6.2-0.1c0.9,1.6,2,3.1,2.7,4.7
		c0.8,1.7,3.2,3.5,1.8,5.2C391.4,410.5,388.8,411.6,386.4,411.3z"/>
	<path class="st27" d="M245.4,47.1c3.7,2.8,6.3,6.5,9.1,10.2c-1.4,3.3-4.2,4.2-7.4,4.6c-2.9-3.2-4.1-7.2-5-11.2
		C243.1,49.4,244.3,48.2,245.4,47.1z"/>
	<path class="st28" d="M296.3,268.7c-2.3-4.2-1.1-8.8-0.8-13.1c0.7-10.1,3.1-20,7.3-29.3c0.6-1.4,0.7-3.5,3.1-3.2
		c-4.7,10.5-7.6,21.6-8.7,33.1C296.2,260.4,297.7,264.7,296.3,268.7z"/>
	<path class="st29" d="M358.8,48.4c-3,0.1-2.7-2.7-3.2-4.3c-3.1-8.3-6.4-16.4-11.4-23.7c-2-2.9-4.5-5.3-6.8-7.9
		c3.5,0.2,4.9,3.1,6.7,5.3C351.1,26.9,355.4,37.4,358.8,48.4z"/>
	<path class="st30" d="M296.3,268.7c0.4-4.1-0.8-8.4,0.9-12.5c-1.9,8.6,1.4,14.8,8.8,19.1c1,0.6,2.3,1.3,2.5,2.8
		C303.5,276.2,300.2,272.1,296.3,268.7z"/>
	<path class="st31" d="M304.4,20.3c-3.6-1.3-4.6-2.4-5.5-6.8c-0.4-1.7-0.4-3.6-0.6-5.4c2.6-2.3,2.1,0.1,2.1,1.4
		C300.2,13.8,301.8,17.2,304.4,20.3z"/>
	<path class="st32" d="M318.9,286.2c-4.5-1.3-8-4.1-10.5-8.1C312.5,280.1,315.6,283.3,318.9,286.2z"/>
	<path class="st6" d="M191.5,373.3c-0.3-6,0.3-12,0.6-18c0.1-2.8,1.5-4.2,3.9-5c5.6-1.8,11.2-1.6,16.5,1
		c32.7,16.1,47.9,42.6,42.7,81.9c-0.7,5.3-3,10.2-5.4,14.9c-1.7,3.4-4.1,4.3-7.3,2.4c-4-2.4-6.8-0.9-9.5,2.3
		c-7.6,9.3-9.4,9.5-19.6,2.8c-6.2-4.1-12.9-6.9-20-8.9c-2.5-0.7-4.1-1.5-4.1-4.6c0.2-16.3-0.3-32.6,1.1-48.9
		c1.8-1.6,3.8-0.6,5.7-0.3c7.9,1.2,15.7,3.1,23.6,4c1.3,0.1,2.9,0.8,3.7-0.5c0.9-1.4-0.2-2.9-0.9-4.2c-1.3-2.7-3.8-4.2-6.3-5.4
		c-6.5-3.1-12.5-6.9-19.2-9.7C195.2,376.2,193,375.3,191.5,373.3z"/>
	<path class="st3" d="M307.3,509.2c4.3,14.9,8.6,29.7,13,44.6c0.4,1.2,1.1,2.4,1.6,3.5c2,0.4-0.1,2.4,1.2,3.1
		c-0.3,1-0.2,1.8,0.9,2.3c-37.3,7.9-71.2,0.6-101.6-22.6c7.8-2.4,16-2.1,23.9-3.6c18.9-3.7,36.9-9.4,52.6-21.1
		C301.7,513.3,304.5,511.2,307.3,509.2z"/>
	<path class="st33" d="M122.3,430.4c0.4-4.9,0-9.9,0.9-14.8c0.3-1.8,1.4-4.4-1.6-5.5c12.5-7.5,22.6-18,32.7-28.3
		c9.1-9.3,19.3-17.3,29.9-24.9c1.4-1,2.8-3.7,5.4-1.7c-2.5,5.1-6.1,9.5-8.2,14.8c-3.1,6.2-5.4,12.6-7.1,19.3
		c-3.6,13.7-5.4,27.6-5.3,41.8c0,2.5,0.3,5-1.1,7.3c-3,2.2-6.1,0.3-9.1-0.1c-10.7-1.4-21.4-3.5-32-5.5
		C125.2,432.4,122.8,432.9,122.3,430.4z"/>
	<path class="st6" d="M167.3,438.2c-0.2-16,0.8-32,5-47.6c0.3-1,0.4-1.9,1.2-2.6c1.3-0.8,2.7-0.1,4,0c0.7,0.1,1.3,0.3,2,0.5
		c2.8,1.3,6,1.3,8.7,3c-0.2,16.5-0.5,33-0.8,49.5c0,2,0.7,5-3.2,3.1c-2.5-2.5-6-2.1-9-3C172.5,440.3,169.1,441.4,167.3,438.2z"/>
	<path class="st34" d="M191.5,373.3c10.3,3.5,19.4,9.3,28.9,14.3c1,0.5,1.9,1.4,2.6,2.3c1.7,2.3,3.6,5.2,2.6,7.7
		c-1.2,2.8-4.5,0.8-6.7,0.5c-9.5-1.3-19-3.2-28.4-4.8C190.2,386.6,190.4,379.9,191.5,373.3z"/>
	<path class="st35" d="M167.3,438.2c4.8,1,9.5,2.1,14.3,2.9c1.9,0.3,3.2,0.8,2.6,3c-25.1-5.2-50.7-7.9-75.4-14.8
		c-1.6-0.4-3.1-0.9-4.7-1.4c2.7-1.7,5.1,0.1,7.5,0.6c3.5,0.7,6.9,2,10.6,1.8C137.1,434.3,152.2,436.3,167.3,438.2z"/>
	<path class="st36" d="M188.1,391.5c-3.2,0.1-6.3-0.4-9-2.3c0.7-6.8,3.5-12.6,8.7-17.2c2,2,0.7,4.5,0.9,6.7
		C188.5,383,188.3,387.3,188.1,391.5z"/>
	<path class="st37" d="M188.7,378.7c-1.1-2.1,1-4.8-1.4-6.6c-0.9,0.1-1.7-0.1-2.5-0.4c-1.4-0.9-3.4-1-4.3-2.7
		c2.2-5.1,4.6-10.1,8.9-13.8C189.2,363.1,189,370.9,188.7,378.7z"/>
	<path class="st38" d="M247,61.8c2.5-1.5,4.9-3.1,7.4-4.6c1.8-0.2,3.6-0.3,5.4-0.6c11.6-1.5,20.5,2.9,27.4,12.1
		c5.3,7,12.7,10.9,21.2,13.1c3.7,0.9,7.3,2.1,10.9,3.2c3.8,1.9,7.7,3.7,11.5,5.7c4.4,2.4,7.5,5.9,8.9,10.8
		c4.3,15.7,4.4,31.3-2.5,46.3c-5.2,11.5-15.3,18.7-24.8,26.2c-14.1,11.3-30.9,15.7-48.4,18.2c-2.6,0.4-5.3,0.6-7.9,1.2
		c-15.5,3-26.4-3.4-34.4-16.3c-7.7-12.4-10.3-25.9-9-40.2c1.7-18.6,7.2-36.1,15.5-52.8C232.8,75.2,239.1,67.9,247,61.8z"/>
	<path class="st39" d="M323.1,560.4c-1.8-0.5-1.4-1.8-1.2-3.1c5.4-15,10.3-30.2,15.4-45.4C334.8,528.7,328.5,544.5,323.1,560.4z"/>
	<path class="st40" d="M326.2,48.4c0.9-1.5,1.8-2.5,3.9-1.8c7.2,2.4,14.6,3.1,22.1,2.4c3.1-0.3,3.9,1,3.1,3.7
		c-7.5,0.9-15.1,1-22.5-0.6C330.3,51.6,327.5,51.1,326.2,48.4z"/>
	<path class="st27" d="M180.5,369.1c1.9,0.2,3.7,0.6,4.9,2.2c-1,6.7-4.4,12.3-8.3,17.6c-1.2-0.3-2.4-0.6-3.7-0.9
		C174.4,381.1,177.4,375.1,180.5,369.1z"/>
	<path class="st41" d="M177.2,388.9c2.8-5.9,5.5-11.8,8.3-17.6c0.8,0,1.5,0.1,1.9,0.9c-2.7,5.7-5.5,11.4-8.2,17
		C178.5,389.1,177.8,389,177.2,388.9z"/>
	<path class="st9" d="M340.3,121c1.3,20.9-8.9,35-23.6,47.3c-15.6,12.9-33.4,19.4-53.1,21.9c-3.8,0.5-7.6,1-11.4,1.5
		c-9.7,1.3-17.7-2-23.9-9.5c-10.1-12.1-14.6-26.2-13.6-41.7c1.4-22.4,7.9-43.4,19.8-62.6c3.9-6.3,9.4-11.2,15.4-15.5
		c7.8-5.6,16.6-4.8,24.8-2.1c3.7,1.2,6.8,5.1,9.4,8.3c6.8,8.4,15.4,13.5,25.9,15.7c7,1.5,13.5,4.7,19.7,8.1
		c8.8,4.7,9.4,13.5,10.6,21.9C340.6,116.8,340.3,119.3,340.3,121z"/>
	<path class="st42" d="M286.2,104.8c-3.5,2.4-8,3.7-6.8,9c0.5,2.3,1.3,2.4,8.1,2.7c-2.7,10.9-12.9,18.1-23.7,16.7
		c-7.9-1-12.5-9.7-9.8-18.5C258.2,100.6,273.5,95.8,286.2,104.8z"/>
</g>
</svg>
